<?xml version="1.0" ?><svg id="Layer_1" style="enable-background:new 0 0 512 512;" version="1.1" viewBox="0 0 512 512" xml:space="preserve" xmlns="http://www.w3.org/2000/svg" xmlns:xlink="http://www.w3.org/1999/xlink"><g id="_x31_9_x2C__Gender_x2C__Venus_x2C__Mars_x2C__Male_x2C__Female"><g><path d="M197.3,276.9c-13.2-7.6-28.7-10.7-43.7-8.6c-13.6,1.9-26.6,7.8-36.8,17.1c-10.1,9.1-17.4,21.2-20.7,34.4    c-3.7,14.6-2.4,30.1,3.5,43.9c5.2,12,13.8,22.5,24.6,29.8c12.3,8.3,27.1,12.5,42,11.8c14.1-0.7,27.9-5.8,39.1-14.5    c10.7-8.3,18.8-19.8,23-32.6c4.8-14.4,4.6-30.2-0.4-44.5c-4.3-12.4-12.3-23.5-22.7-31.6C202.7,280.3,200,278.5,197.3,276.9     M142.7,261.4c17.5-4.7,36.4-3.1,52.8,4.6c14.2,6.6,26.3,17.4,34.3,30.9c8.8,14.8,12.5,32.5,10.3,49.6    c-2.1,16.6-9.7,32.2-21.2,44.3c-11.1,11.6-25.8,19.5-41.5,22.4c-17.6,3.3-36.1,0.4-51.9-8.3c-13.5-7.4-24.7-18.9-31.8-32.6    c-6.8-13.3-9.8-28.6-8.2-43.4c1.4-13.8,6.5-27,14.7-38.2c8.3-11.3,19.6-20.3,32.6-25.8C135.9,263.4,139.3,262.3,142.7,261.4    C163.5,255.8,101.2,272.5,142.7,261.4z M298.7,320.4c0.8,7.2,1.2,14.5,0.9,21.8c-0.6,14.5-3.5,28.8-8.6,42.4    c-3.3,8.9-7.6,17.4-12.7,25.4c13.1-1.8,25.6-7.2,35.6-15.8c9.4-8,16.5-18.4,20.5-30.1c3.8-11.1,4.7-23.2,2.6-34.7    c-2.1-11.8-7.4-23-15.2-32.2c-8.4-10-19.7-17.4-32.2-21.3c-1.6-0.5-3.3-1-5-1.3c1.1,2.4,2.2,4.7,3.3,7.1c3,6.6,5.4,13.8,7.2,20.9    C296.8,308.4,297.9,314.4,298.7,320.4z M241.1,437.7c5.2-4.3,10.3-8.6,14.9-13.6c5.4-5.8,10.2-12,14.5-18.7    c8.1-12.7,14-26.6,17.2-41.2c1.9-8.5,2.9-17.2,3-26c0.1-10.6-1.1-21.1-3.5-31.4c-3.9-16.4-11-32-21-45.6    c-9.5-13.1-21.6-24.3-35.3-32.9c-13.3-8.4-28.1-14.3-43.6-17.3c-7.8-1.5-15.8-2.3-23.7-2.4c-2,0-4,0-6,0.1    c-1.8,0.1-3.5,0.2-4.9-1.2c-0.8-0.7-1.1-1.6-1.4-2.6c-1.5-5.7-3-11.3-4.5-17c-2.5-9.5-5.1-19-7.6-28.5c-2.1-7.8-4.2-15.6-6.3-23.4    c-0.4-1.5-0.9-3.1-1.2-4.6c-0.6-2.5,0.7-4.9,3.2-5.6c0.5-0.1,1-0.3,1.5-0.4c8.1-2.2,16.2-4.4,24.3-6.5c4.2-1.1,8.5-2.3,12.7-3.4    c1.3-0.4,2.7-0.7,4-1.1c0.2-0.1,1.3-0.2,1.4-0.4c0.1-0.2-0.4-1.4-0.4-1.7c-0.4-1.4-0.7-2.8-1.1-4.1c-1.2-4.3-2.3-8.6-3.5-13    c-2.2-8-4.3-16-6.5-24.1c-0.1-0.2-0.2-1.3-0.4-1.4c-0.2-0.1-1.4,0.4-1.6,0.4c-3.4,0.9-6.8,1.8-10.1,2.7c-9,2.4-18.1,4.8-27.1,7.3    c-1.9,0.5-4,1.4-6,1.5c-4.1,0.3-4.8-3.8-5.6-6.8c-2.3-8.8-4.7-17.6-7-26.4c-0.6-2.1-1.1-4.1-1.7-6.2c-4.8,1.3-9.5,2.6-14.3,3.8    c-7.8,2.1-15.7,4.2-23.5,6.3c-1.3,0.3-2.6,0.7-3.9,1c-0.7,0.2-1.6,0.3-2.2,0.6c-0.4,0.2-0.3,0-0.3,0.4c0,0.8,0.5,1.7,0.7,2.5    c2,7.5,4,14.9,6,22.4c0.8,3,1.6,6.1,2.4,9.1c0.2,0.6,0.3,1.1,0.5,1.7c0.6,2.5-0.7,4.8-3.2,5.6c-4.8,1.5-9.8,2.6-14.7,3.9    c-7.8,2.1-15.6,4.2-23.3,6.3c-1.2,0.3-2.5,0.7-3.7,1c-0.5,0.1-1.6,0.2-2,0.5c-0.3,0.2-0.2,0-0.1,0.4c0.1,0.8,0.4,1.5,0.6,2.3    c1.9,7.1,3.8,14.3,5.7,21.4c1.7,6.4,3.4,12.7,5.1,19.1c0.1,0.4,0.2,0.7,0.3,1.1c3.6-1,7.2-1.9,10.7-2.9c6.8-1.8,13.6-3.6,20.4-5.5    c4.2-1.1,8.5-2.3,12.7-3.4c2.6-0.7,5,0.7,5.8,3.3c0.3,1,0.5,2,0.8,3c1.3,4.7,2.5,9.5,3.8,14.2c1.8,6.8,3.6,13.5,5.4,20.3    c1.8,6.7,3.6,13.4,5.4,20.1c1.2,4.6,2.5,9.2,3.7,13.7c0.2,0.8,0.5,1.7,0.7,2.5c0.4,1.6,0,3.2-1.2,4.4c-1,1-2.5,1.5-3.7,2.2    c-1.3,0.7-2.5,1.4-3.7,2.1c-9.9,5.7-19,12.8-27,21c-7.9,8-14.6,17.1-20.2,26.9c-6.1,10.8-10.6,22.5-13.3,34.5    c-2.9,12.9-3.8,26.3-2.6,39.5c1.1,12.6,4.2,25.1,9,36.9c4.2,10.3,9.7,20,16.4,28.9c6.6,8.7,14.3,16.5,22.8,23.2    c9,7.1,19,13,29.6,17.5c11.7,4.9,24,8.1,36.6,9.4c13,1.3,26.1,0.6,38.9-2c12.8-2.7,25.3-7.4,36.7-13.7    C230.9,444.9,236.1,441.5,241.1,437.7z M359.9,142.6c-4,0-6-5-3.1-7.8c1-0.9,2.2-1.2,3.5-1.2c1.7,0,3.4,0,5.1,0    c7.9,0,15.7,0,23.6,0c10.6,0,21.2,0,31.8,0c9.5,0,19.1,0,28.6,0c4.7,0,9.5-0.1,14.2,0c1.9,0,3.7,1,4.4,2.9c1.1,3-1.2,6-4.3,6.1    c-1.2,0-2.5,0-3.7,0c-7.3,0-14.5,0-21.8,0c-10.5,0-20.9,0-31.4,0c-9.9,0-19.8,0-29.7,0c-5.5,0-11,0-16.5,0    C360.4,142.6,360.1,142.6,359.9,142.6z M126.5,96.9c-2.8,0.8-5.6-1.4-5.6-4.3c0-2.1,1.5-3.8,3.4-4.4c1.9-0.6,3.8-1,5.8-1.5    c7.3-2,14.6-3.9,21.9-5.9c1.9-0.5,3.8-1.1,5.7-1.5c2.1-0.5,4.3,0.4,5.3,2.4c1.2,2.6-0.2,5.5-2.9,6.3c-5.1,1.5-10.2,2.7-15.3,4.1    c-6,1.6-11.9,3.2-17.9,4.8C126.7,96.8,126.6,96.9,126.5,96.9z M233,219.2c10.8,6.4,20.6,14.4,29.3,23.5c5.3,5.6,10,11.7,14.4,18.1    c0.7,1,1.3,1.9,1.9,2.9c0.1,0.2,0.2,0.5,0.4,0.6c0.5,0.4,1.5,0.4,2.1,0.5c1.7,0.3,3.5,0.6,5.2,1c7.1,1.6,13.9,4.1,20.2,7.6    c12,6.5,22.2,16.2,29.3,27.8c6.7,10.9,10.6,23.5,11.3,36.3c0.7,12.7-1.7,25.6-7.1,37.1c-5.6,12.1-14.5,22.8-25.4,30.6    c-11.6,8.3-25.5,13.2-39.8,14.3c-0.9,0.1-1.7,0.1-2.6,0.1c-0.6,0-0.6,0.1-1,0.6c-0.3,0.4-0.6,0.7-0.9,1.1    c-1.1,1.4-2.2,2.8-3.4,4.1c-2.3,2.7-4.7,5.3-7.2,7.8c-4.2,4.2-8.7,8.2-13.4,11.8c-6.8,5.2-14,9.9-21.6,13.6    c-1.1,0.6-2.2,1.1-3.3,1.6c17.4,7,36.4,10.1,55.1,9.1c17-1,33.8-5.3,49.1-12.9c15.4-7.6,29.3-18.3,40.5-31.3    c11-12.8,19.4-27.7,24.7-43.7c5.2-16,7.2-33.1,5.9-49.9c-1.4-17.6-6.5-34.8-14.8-50.4c-1.1-2-2.2-4-3.4-5.9    c-1-1.7-2.7-3.4-2.7-5.4c0-1.4,0.6-2.6,1.6-3.6c1.4-1.4,2.8-2.8,4.1-4.1c6-6,11.9-11.9,17.9-17.9c6.9-6.9,13.9-13.9,20.8-20.8    c4-4,8-8,12-12c1-1,2.3-1.7,3.8-1.6c2.5,0.2,4.2,2.2,4.2,4.7c0,2.1,0,4.2,0,6.3c0,9.3,0,18.5,0,27.8c0,7.4,0,14.7,0,22.1    c0,0.2-0.1,0.9,0,1c0.3,0.2,1.7,0,2,0c3.7,0,7.3,0,11,0c9.3,0,18.6,0,27.9,0c1.3,0,2.6,0,3.9,0c0.2,0,0.9,0.1,1,0    c0.1-0.1,0-0.6,0-0.7c0-0.6,0-1.1,0-1.7c0-5.1,0-10.1,0-15.2c0-8.3,0-16.5,0-24.8c0-10,0-19.9,0-29.9c0-10,0-20,0-30    c0-8.4,0-16.8,0-25.2c0-5.3,0-10.6,0-15.8c0-0.6,0-1.3,0-1.9c0-0.2,0.1-0.8,0-0.9c-0.2-0.2-1-0.1-1.3-0.1c-4.4,0-8.9,0-13.3,0    c-7.9,0-15.9,0-23.8,0c-9.8,0-19.7,0-29.5,0c-10,0-20.1,0-30.1,0c-8.8,0-17.6,0-26.3,0c-5.8,0-11.7,0-17.5,0c-1.3,0-2.6,0-3.9,0    c-0.1,0-0.4-0.1-0.5,0c-0.2,0.2,0,1.4,0,1.6c0,8.5,0,17,0,25.5c0,4.4,0,8.9,0,13.3c0,1.3,0,2.7,0,4c0,0.2-0.1,1.3,0,1.4    c0.2,0.2,1.2,0,1.5,0c1.2,0,2.5,0,3.7,0c4,0,8,0,12,0c9.7,0,19.5,0,29.2,0c3.1,0,6.2,0,9.3,0c0.5,0,1.1,0,1.6,0    c3.5,0.1,5.8,4,3.7,7c-0.8,1.1-2,2.1-2.9,3c-2.2,2.2-4.4,4.4-6.6,6.6c-6.7,6.7-13.4,13.4-20.1,20.1c-6.5,6.5-12.9,12.9-19.4,19.4    c-1.9,1.9-3.8,3.8-5.6,5.6c-0.4,0.4-0.8,0.8-1.2,1.2c-1.9,1.8-4.2,1.7-6.4,0.3c-15.2-9.8-32.5-16.3-50.5-18.9    C269.6,212.6,250.7,213.9,233,219.2z"/></g></g><g id="Layer_1_1_"/></svg>